<?xml version="1.0" encoding="utf-8"?>
<!-- Generator: Adobe Illustrator 16.0.0, SVG Export Plug-In . SVG Version: 6.00 Build 0)  -->
<!DOCTYPE svg PUBLIC "-//W3C//DTD SVG 1.1//EN" "http://www.w3.org/Graphics/SVG/1.1/DTD/svg11.dtd">
<svg version="1.1" id="Layer_1" xmlns="http://www.w3.org/2000/svg" xmlns:xlink="http://www.w3.org/1999/xlink" x="0px" y="0px"
	 width="100px" height="100px" viewBox="0 0 100 100" enable-background="new 0 0 100 100" xml:space="preserve">
<path fill="#020202" d="M27.479,43.161c0,6.004-4.804,10.907-10.908,10.907v42.83c0,1.699,1.4,3.102,3.104,3.102H87.92
	c1.701,0,3.104-1.4,3.104-3.102V43.161H27.479z M39.486,56.971H26.978l6.204-10.007H45.89L39.486,56.971z M60.297,56.971H47.391
	l6.203-10.007h12.709L60.297,56.971z M80.812,56.971H67.904l6.203-10.007h12.709L80.812,56.971z"/>
<path fill="#020202" d="M24.475,43.161c0-4.203-3.401-7.705-7.704-7.705c-4.304,0-7.806,3.402-7.806,7.705
	c0,4.203,3.401,7.706,7.704,7.706C20.973,50.867,24.475,47.364,24.475,43.161z"/>
<path fill="#020202" d="M16.56,31.598c5.891,0.124,10.828,5.376,10.905,11.564h63.57V28.259c-0.082-2.193-1.859-3.133-3.16-3.121
	H19.718c-2.062,0.026-3.096,1.386-3.158,2.873V31.598z M80.572,28.707l6.115,9.973H74.07l-6.117-9.973H80.572z M59.963,28.707
	l6.209,9.973l-12.709,0l-6.207-9.973L59.963,28.707z M39.45,28.707l6.209,9.973h-12.71l-6.21-9.973H39.45z"/>
</svg>
