<?xml version="1.0" encoding="utf-8"?>
<!-- Generator: Adobe Illustrator 16.0.0, SVG Export Plug-In . SVG Version: 6.00 Build 0)  -->
<!DOCTYPE svg PUBLIC "-//W3C//DTD SVG 1.1//EN" "http://www.w3.org/Graphics/SVG/1.1/DTD/svg11.dtd">
<svg version="1.1" id="Layer_1" xmlns="http://www.w3.org/2000/svg" xmlns:xlink="http://www.w3.org/1999/xlink" x="0px" y="0px"
	 width="100px" height="100px" viewBox="0 0 100 100" enable-background="new 0 0 100 100" xml:space="preserve">
<path id="lightbulb" d="M49.643,38.061c-3.292,0-5.97,2.678-5.97,5.97S46.352,50,49.643,50s5.969-2.677,5.969-5.969
	C55.612,40.739,52.935,38.061,49.643,38.061z"/>
<path id="screen" d="M84.694,17.347H15.306c-1.69,0-3.061,1.371-3.061,3.062v42.856c0,1.691,1.371,3.062,3.061,3.062h69.389
	c1.69,0,3.061-1.37,3.061-3.062V20.409C87.755,18.718,86.384,17.347,84.694,17.347z M48.163,27.545c0-1.011,0.823-1.831,1.837-1.831
	c1.015,0,1.837,0.82,1.837,1.831v2.563c0,1.011-0.822,1.831-1.837,1.831c-1.014,0-1.837-0.82-1.837-1.831V27.545z M36.026,45.921
	h-2.563c-1.011,0-1.831-0.823-1.831-1.838s0.82-1.838,1.831-1.838h2.563c1.011,0,1.831,0.823,1.831,1.838
	S37.037,45.921,36.026,45.921z M38.691,35.582l-1.825-1.824c-0.72-0.72-0.72-1.886,0-2.606c0.72-0.719,1.887-0.719,2.606,0
	l1.825,1.824c0.719,0.72,0.719,1.886,0,2.606c-0.36,0.359-0.832,0.54-1.303,0.54S39.051,35.941,38.691,35.582z M53.857,53.007v4.342
	c0,0.337-0.272,0.61-0.607,0.61h-6.806c-0.335,0-0.607-0.273-0.607-0.61v-4.342c-3.32-1.535-5.632-4.909-5.632-8.817
	c0-5.349,4.326-9.7,9.643-9.7s9.643,4.351,9.643,9.699C59.49,48.098,57.178,51.472,53.857,53.007z M60.006,36.122
	c-0.471,0-0.942-0.18-1.303-0.54c-0.72-0.719-0.72-1.886,0-2.605l1.824-1.825c0.72-0.719,1.887-0.719,2.606,0s0.72,1.886,0,2.606
	l-1.824,1.824C60.95,35.942,60.478,36.122,60.006,36.122z M66.435,45.921h-2.563c-1.011,0-1.83-0.823-1.83-1.838
	s0.819-1.838,1.83-1.838h2.563c1.012,0,1.831,0.823,1.831,1.838S67.446,45.921,66.435,45.921z"/>
<path id="screenBubble" d="M91.837,5.102H8.164C3.655,5.102,0,8.756,0,13.265v57.143c0,4.509,3.655,8.163,8.164,8.163H71.53
	l16.327,16.327V78.571h3.979c4.508,0,8.163-3.654,8.163-8.163V13.265C100,8.757,96.345,5.102,91.837,5.102z M89.796,64.286
	c0,2.255-1.828,4.081-4.082,4.081H14.286c-2.254,0-4.082-1.827-4.082-4.081V19.387c0-2.254,1.828-4.081,4.082-4.081h71.428
	c2.255,0,4.082,1.827,4.082,4.081V64.286z"/>
</svg>
